<svg width="22" height="22" viewBox="0 0 22 22" fill="none" xmlns="http://www.w3.org/2000/svg">
<path d="M12.4754 6.11708C12.1218 5.6928 11.4913 5.63548 11.067 5.98904C10.6427 6.3426 10.5854 6.97317 10.9389 7.39745L12.4754 6.11708ZM15.2427 10.9999L16.0109 11.6401C16.32 11.2693 16.32 10.7306 16.0109 10.3597L15.2427 10.9999ZM10.9389 14.6024C10.5854 15.0267 10.6427 15.6573 11.067 16.0108C11.4913 16.3644 12.1218 16.3071 12.4754 15.8828L10.9389 14.6024ZM6.75739 9.99993C6.2051 9.99993 5.75739 10.4476 5.75739 10.9999C5.75739 11.5522 6.2051 11.9999 6.75738 11.9999L6.75739 9.99993ZM10.9389 7.39745L14.4745 11.6401L16.0109 10.3597L12.4754 6.11708L10.9389 7.39745ZM14.4745 10.3597L10.9389 14.6024L12.4754 15.8828L16.0109 11.6401L14.4745 10.3597ZM15.2427 9.99993L6.75739 9.99993L6.75738 11.9999L15.2427 11.9999L15.2427 9.99993ZM17.0811 4.91878C20.4396 8.27729 20.4396 13.7225 17.0811 17.081L18.4954 18.4952C22.6349 14.3557 22.6349 7.64413 18.4954 3.50457L17.0811 4.91878ZM17.0811 17.081C13.7226 20.4395 8.27741 20.4395 4.91891 17.081L3.50469 18.4952C7.64425 22.6348 14.3558 22.6348 18.4954 18.4952L17.0811 17.081ZM4.91891 17.081C1.5604 13.7225 1.5604 8.27729 4.91891 4.91878L3.50469 3.50457C-0.634865 7.64413 -0.634865 14.3557 3.50469 18.4952L4.91891 17.081ZM4.91891 4.91878C8.27741 1.56028 13.7226 1.56028 17.0811 4.91878L18.4954 3.50457C14.3558 -0.634987 7.64425 -0.634987 3.50469 3.50457L4.91891 4.91878Z" fill="black"/>
</svg>
